<svg width="23" height="23" viewBox="0 0 23 23" fill="none" xmlns="http://www.w3.org/2000/svg">
<g clip-path="url(#clip0_72_260)">
<path d="M12.1883 17.7293H11.7418C8.75872 17.7293 5.77551 17.7293 2.79216 17.7293C1.65303 17.7293 1.16295 17.245 1.16031 16.1196C1.15766 12.755 1.15766 9.3902 1.16031 6.02525C1.16031 5.87556 1.17263 5.72542 1.18056 5.55371H19.6386V12.3962C15.8654 11.4997 12.5088 14.1674 12.1883 17.7293ZM10.4437 7.5799C9.63395 7.5799 8.82419 7.57241 8.01443 7.5799C6.95148 7.59179 6.18004 8.30548 6.16947 9.27191C6.15846 10.2634 6.93167 11.0057 8.01179 11.0124C9.60107 11.0226 11.1902 11.0226 12.7792 11.0124C13.8421 11.0057 14.6132 10.2868 14.6242 9.3199C14.6352 8.32838 13.8624 7.59223 12.7814 7.57946C12.0025 7.57241 11.2231 7.5799 10.4437 7.5799Z" fill="white"/>
<path d="M0.00402631 4.51493C0.00402631 3.22005 -0.00875691 1.95424 0.0119384 0.688859C0.0185433 0.28688 0.288481 0.056611 0.690939 0.011702C0.843425 -0.00019676 0.996433 -0.0037239 1.1493 0.00113565H19.6461C20.6113 0.00113565 20.798 0.187375 20.7984 1.15028C20.7984 2.26287 20.7984 3.37547 20.7984 4.51536L0.00402631 4.51493Z" fill="white"/>
<path d="M13.2199 18.076C13.2239 17.4328 13.3549 16.7968 13.6055 16.2045C13.856 15.6121 14.2212 15.0751 14.6799 14.6244C15.1387 14.1736 15.682 13.8179 16.2787 13.5777C16.8754 13.3376 17.5137 13.2177 18.1568 13.2249C18.8003 13.2296 19.4365 13.3615 20.0288 13.6131C20.6211 13.8646 21.1578 14.2308 21.6079 14.6905C22.0581 15.1503 22.4129 15.6945 22.6519 16.292C22.8909 16.8894 23.0093 17.5281 23.0004 18.1715C22.9864 19.4624 22.4614 20.6952 21.5404 21.6C20.6195 22.5048 19.3775 23.0079 18.0864 22.9992C17.4431 22.9971 16.8065 22.8679 16.2133 22.619C15.6201 22.3701 15.082 22.0065 14.6297 21.549C14.1775 21.0915 13.8202 20.5492 13.5782 19.9532C13.3363 19.3571 13.2145 18.7192 13.2199 18.076ZM18.6016 18.5757H20.8314V17.6278H18.5813V15.3933H17.6174V17.6476H15.3947V18.6114H17.654V20.8216H18.6016V18.5757Z" fill="white"/>
</g>
<defs>
<clipPath id="clip0_72_260">
<rect width="23" height="23" fill="white"/>
</clipPath>
</defs>
</svg>
