<svg width="19" height="20" viewBox="0 0 19 20" fill="none" xmlns="http://www.w3.org/2000/svg">
<g clip-path="url(#clip0_72_394)">
<path d="M6.61562 5.08471C6.64904 5.09169 6.66515 5.09804 6.68173 5.09866C6.94475 5.11206 11.7345 5.10187 11.8365 5.08806C11.8619 5.04794 11.8294 5.01786 11.8152 4.98786C11.6448 4.63004 11.4734 4.27273 11.3009 3.91593C10.8157 2.90676 10.3303 1.89761 9.84487 0.888479C9.74461 0.68075 9.74528 0.475603 9.86365 0.277853C10.0878 -0.0966445 10.6123 -0.0919692 10.8354 0.284203C10.8517 0.312114 10.8653 0.341211 10.8793 0.370239C11.6171 1.90228 12.3549 3.43432 13.0926 4.96636C13.1126 5.00746 13.1335 5.04794 13.1572 5.09517C13.2119 5.09664 13.2642 5.09936 13.3171 5.09936C14.4034 5.09936 15.4897 5.09936 16.576 5.09936C16.7546 5.09936 16.9307 5.11415 17.1044 5.1637C17.7482 5.34721 18.2553 5.93642 18.3415 6.64019C18.3722 6.89042 18.3816 7.1426 18.3387 7.39066C18.2286 8.02773 17.8679 8.43732 17.2783 8.62572C17.1814 8.6567 17.0773 8.66298 16.9765 8.68015C16.955 8.68385 16.9332 8.68552 16.9058 8.6888C16.8914 8.73437 16.8772 8.77763 16.864 8.82138C16.2057 10.9865 15.5475 13.1517 14.8894 15.3169C14.6986 15.9449 14.3299 16.4201 13.7764 16.736C13.4332 16.9319 13.0628 17.0177 12.6735 17.0189C12.4242 17.0196 12.1748 17.0192 11.9255 17.0192C10.9728 17.0192 10.02 17.0194 9.0673 17.0196C9.0147 17.0196 8.96076 17.0104 8.90153 17.0348C8.4537 18.1338 7.72365 18.9676 6.69463 19.5049C5.92327 19.9078 5.10273 20.0615 4.24595 19.9773C2.37358 19.7935 0.803607 18.4383 0.28612 16.5377C0.00538479 15.5072 0.0528419 14.4857 0.427756 13.4871C0.802671 12.4886 1.43867 11.7138 2.30681 11.153C2.29257 11.0409 1.66225 8.94956 1.56627 8.6925C1.49696 8.68245 1.42296 8.67254 1.34924 8.66103C0.741779 8.56613 0.254504 8.07629 0.143012 7.44543C0.127404 7.35871 0.119062 7.27074 0.11808 7.18251C0.11661 6.99683 0.111998 6.81143 0.142812 6.6261C0.259383 5.92518 0.811227 5.33312 1.47897 5.19565C1.6154 5.16774 1.75249 5.16077 1.89065 5.16077H5.28681C5.34075 5.11729 5.35479 5.06105 5.37818 5.01214C5.87022 3.98575 6.36158 2.95904 6.85224 1.93201C7.09882 1.41656 7.34686 0.901737 7.59144 0.385311C7.66202 0.236335 7.76409 0.123923 7.91321 0.0684498C8.1384 -0.0152836 8.34728 0.0249084 8.5176 0.201865C8.69092 0.381961 8.7351 0.600785 8.65128 0.843821C8.63986 0.874088 8.62672 0.903611 8.61191 0.93223C7.96858 2.26931 7.32516 3.60639 6.68166 4.94348C6.66214 4.98486 6.64296 5.02651 6.61562 5.08471ZM3.39526 10.6336C3.53562 10.6005 3.66964 10.5682 3.80406 10.5375C3.93848 10.5068 4.07758 10.5041 4.21487 10.4928C4.34788 10.482 4.48083 10.466 4.61405 10.4628C4.75181 10.4596 4.88984 10.4684 5.02773 10.473C5.16302 10.4775 5.2959 10.5154 5.44014 10.5129C5.43112 10.4762 5.4259 10.4494 5.41788 10.4235C5.37778 10.2954 5.33814 10.1673 5.29683 10.0397C5.26589 9.94431 5.26442 9.84649 5.2822 9.75019C5.32898 9.49627 5.53927 9.29664 5.77722 9.27096C6.09071 9.23691 6.30527 9.44066 6.37766 9.63813C6.3935 9.68146 6.40761 9.72556 6.42071 9.76987C6.53253 10.1471 6.64503 10.524 6.75452 10.9019C6.7737 10.9682 6.7999 11.0213 6.86494 11.047C6.88552 11.0552 6.90397 11.0692 6.92336 11.0806C7.41353 11.3691 7.83793 11.7399 8.19656 12.1933C8.34956 12.387 8.48811 12.5928 8.61097 12.8087C8.62194 12.8278 8.63062 12.8517 8.66445 12.8356V12.6847C8.66445 11.7915 8.66445 10.8984 8.66445 10.0052C8.66445 9.95408 8.66558 9.90287 8.66478 9.85172C8.66104 9.61448 8.83583 9.31499 9.16562 9.27361C9.45973 9.23677 9.71994 9.42342 9.79039 9.71782C9.80555 9.7856 9.8128 9.85504 9.81198 9.92464C9.81323 11.0783 9.8135 12.232 9.81279 13.3856C9.81279 13.4181 9.81352 13.4509 9.81105 13.4833C9.78344 13.8415 9.47831 14.0869 9.13875 14.0251C9.12732 14.023 9.11462 14.0283 9.09431 14.0315C9.15841 14.325 9.21114 14.6157 9.2308 14.9124C9.25045 15.2092 9.23434 15.5055 9.21074 15.7976C9.26422 15.8296 9.31461 15.8181 9.36254 15.8186C10.4533 15.8193 11.544 15.8193 12.6348 15.8186C12.6971 15.8192 12.7593 15.816 12.8213 15.8089C13.2775 15.7517 13.591 15.4967 13.7682 15.056C13.7871 15.009 13.8012 14.9598 13.8159 14.9111C14.3968 12.9885 14.9776 11.0659 15.5583 9.14327C15.6452 8.85536 15.727 8.56544 15.8226 8.2806C15.9504 7.89962 16.2074 7.6526 16.5756 7.5314C16.6773 7.49684 16.784 7.48056 16.891 7.48325C17.0599 7.48883 17.215 7.33148 17.2122 7.1449C17.2109 7.05189 17.216 6.95852 17.2107 6.86579C17.1906 6.51411 16.9205 6.30917 16.6815 6.30366C16.6325 6.30254 16.5836 6.30094 16.5344 6.30094C15.6618 6.30094 14.7892 6.30094 13.9167 6.30094C13.881 6.30094 13.8454 6.29996 13.8097 6.30198C13.7897 6.30317 13.7702 6.30973 13.7403 6.31594C13.7632 6.36827 13.7804 6.41028 13.7996 6.45124C13.8993 6.6642 13.998 6.87765 14.1001 7.08928C14.1365 7.16353 14.1772 7.23546 14.2218 7.30469C14.3154 7.45199 14.3688 7.61262 14.3688 7.78937C14.3704 8.39567 13.8001 8.82906 13.248 8.64275C12.7103 8.46133 12.4832 7.79844 12.7888 7.3019C12.8126 7.26338 12.8377 7.22584 12.8634 7.18593L12.4473 6.31189C12.4219 6.30756 12.4046 6.30205 12.3871 6.30205C10.2858 6.30163 8.18452 6.30163 6.08316 6.30205C6.06585 6.30205 6.04853 6.30819 6.02487 6.31266L5.61553 7.15564C5.63004 7.17972 5.64127 7.19926 5.65343 7.21844C5.6656 7.23763 5.68017 7.25585 5.6916 7.27566C5.8063 7.4739 5.85202 7.68435 5.81265 7.91657C5.72435 8.43935 5.22531 8.74204 4.77861 8.63466C4.21266 8.49852 3.90232 7.79662 4.26701 7.26059C4.29606 7.21959 4.32215 7.17639 4.34508 7.13136C4.46174 6.89091 4.57717 6.64985 4.69138 6.40818C4.70475 6.38027 4.71357 6.34978 4.72447 6.32047C4.67735 6.29033 4.63196 6.30149 4.58885 6.30142C3.69406 6.30082 2.79923 6.30082 1.90436 6.30142C1.85093 6.30072 1.79752 6.30338 1.7444 6.30938C1.49328 6.3412 1.28406 6.56756 1.26689 6.83271C1.25963 6.94888 1.25936 7.0654 1.26609 7.1816C1.27377 7.32018 1.34589 7.41647 1.47209 7.46071C1.51734 7.47676 1.56774 7.48165 1.61593 7.4829C1.7408 7.48535 1.86428 7.51076 1.98069 7.55798C2.33568 7.70207 2.56689 7.96723 2.68152 8.34591C2.8947 9.05011 3.1086 9.75408 3.3232 10.4578C3.34212 10.5134 3.3478 10.5758 3.39526 10.6336ZM8.09329 15.2564C8.0947 15.0203 8.07365 14.7845 8.03046 14.5527C7.84791 13.595 7.36912 12.8384 6.60405 12.2815C6.1625 11.96 5.67135 11.7665 5.13675 11.6918C4.85869 11.6518 4.57692 11.6486 4.29809 11.6822C3.97127 11.723 3.6519 11.8134 3.35007 11.9504C3.33376 11.9578 3.31772 11.9661 3.30121 11.9728C3.01252 12.0914 2.75311 12.2659 2.51662 12.4695C1.8089 13.0796 1.40037 13.8657 1.28854 14.8189C1.23433 15.2818 1.27056 15.7372 1.38961 16.1859C1.84253 17.8929 3.48469 19.1021 5.37611 18.7277C6.50533 18.4643 7.32013 17.7874 7.8205 16.6972C7.83302 16.6726 7.84359 16.6469 7.85212 16.6204C7.91275 16.4023 7.99202 16.1898 8.0358 15.9667C8.04823 15.9033 8.05686 15.8388 8.06334 15.7744C8.06982 15.71 8.07163 15.6447 8.07531 15.5798C8.08206 15.4592 8.08867 15.3385 8.09329 15.2564Z" fill="white"/>
<path d="M11.4661 14.0422C11.3325 14.0615 11.2288 14.0096 11.1393 13.9279C10.9542 13.7589 10.8897 13.5448 10.9588 13.2988C11.0277 13.0539 11.1101 12.8131 11.1875 12.5708C11.4869 11.6324 11.7866 10.694 12.0866 9.75566C12.1035 9.70284 12.1195 9.64911 12.143 9.59943C12.2725 9.32506 12.5815 9.19799 12.8566 9.30364C13.1317 9.40928 13.2901 9.71603 13.2126 10.0118C13.1633 10.1997 13.1001 10.3837 13.0411 10.5687C12.7235 11.5645 12.4055 12.5602 12.0871 13.5557C12.08 13.5777 12.0729 13.5997 12.0654 13.6216C11.9739 13.8871 11.7904 14.0232 11.5236 14.0419C11.5015 14.0435 11.4792 14.0422 11.4661 14.0422Z" fill="white"/>
<path d="M5.27991 14.6288C5.32396 14.6288 5.37268 14.6288 5.42134 14.6288C5.65268 14.6288 5.88409 14.6251 6.11529 14.6303C6.35646 14.6357 6.53319 14.7597 6.62817 14.9881C6.79253 15.3833 6.52911 15.811 6.12071 15.8265C5.88523 15.8354 5.64921 15.8283 5.41346 15.8288C5.36526 15.8288 5.31707 15.8305 5.26159 15.8317C5.25765 15.8757 5.25183 15.9113 5.2517 15.9471C5.25081 16.1936 5.25065 16.4399 5.25123 16.6861C5.25123 16.7655 5.24582 16.8434 5.21942 16.9192C5.14228 17.1408 4.92451 17.334 4.63502 17.313C4.51443 17.3038 4.39979 17.2547 4.30781 17.1727C4.21584 17.0908 4.15133 16.9803 4.12368 16.8575C4.11038 16.7941 4.10366 16.7293 4.10363 16.6644C4.10129 16.4368 4.10303 16.2089 4.10249 15.9812C4.10249 15.9357 4.09922 15.8905 4.09715 15.8367C4.05704 15.8337 4.02248 15.8291 3.98819 15.8291C3.75692 15.8284 3.52558 15.8308 3.29431 15.8273C3.22393 15.8263 3.1512 15.819 3.08403 15.7986C2.81519 15.7167 2.64795 15.4348 2.68605 15.1381C2.72148 14.8623 2.95489 14.638 3.2254 14.6309C3.46101 14.6247 3.6969 14.6291 3.93265 14.6288C3.98124 14.6288 4.0299 14.6288 4.07074 14.6288C4.11305 14.5946 4.10196 14.5546 4.10209 14.5192C4.10316 14.2776 4.10116 14.0358 4.10376 13.7941C4.10365 13.7246 4.11104 13.6553 4.12582 13.5875C4.18812 13.3204 4.41932 13.1389 4.68488 13.1404C4.94871 13.1418 5.17871 13.33 5.24014 13.6122C5.25183 13.6658 5.25063 13.7231 5.25083 13.7787C5.25197 14.0204 5.25083 14.2621 5.25183 14.5038C5.2519 14.544 5.24161 14.5879 5.27991 14.6288Z" fill="white"/>
</g>
<defs>
<clipPath id="clip0_72_394">
<rect width="18.2617" height="20" fill="white" transform="translate(0.106201)"/>
</clipPath>
</defs>
</svg>
