<svg width="19" height="21" viewBox="0 0 19 21" fill="none" xmlns="http://www.w3.org/2000/svg">
<g clip-path="url(#clip0_86_71)">
<path d="M1.39583 21.0001C1.34841 20.867 1.26088 20.7339 1.25932 20.5997C1.24837 19.4927 1.25306 18.3851 1.25306 17.2781V17.0173C0.926375 17.0173 0.62105 17.0294 0.315203 17.0108C0.206307 17.0036 0.0484355 16.9483 0.0104001 16.8656C-0.0276354 16.7829 0.0255072 16.6131 0.0921995 16.526C0.741928 15.6715 1.4026 14.8279 2.06119 13.9784C2.23625 13.7532 2.37381 13.7532 2.55044 13.9827C3.21041 14.8292 3.86934 15.6762 4.52724 16.5238C4.608 16.6273 4.7023 16.7517 4.60591 16.8678C4.52156 16.9536 4.41051 17.0044 4.29329 17.0108C3.98953 17.0294 3.68368 17.0173 3.35543 17.0173V17.254C3.35543 18.3818 3.35543 19.5096 3.35543 20.6369C3.35543 20.793 3.32834 20.9201 3.1913 21.0001H1.39583Z" fill="white"/>
<path d="M10.973 21.0001C10.9245 20.867 10.8354 20.7345 10.8339 20.6013C10.8229 19.4943 10.8276 18.3868 10.8276 17.2797V17.0174C10.5088 17.0174 10.2102 17.03 9.91374 17.0108C9.79755 17.0031 9.64905 16.956 9.5808 16.8678C9.48493 16.7462 9.58705 16.6169 9.67302 16.5068C10.3292 15.6669 10.9838 14.825 11.6368 13.9811C11.8139 13.7533 11.9458 13.7522 12.125 13.9811C12.785 14.8269 13.445 15.6735 14.1049 16.5211C14.1852 16.6241 14.2831 16.7473 14.1841 16.8651C14.0996 16.9509 13.9888 17.0021 13.8715 17.0097C13.5672 17.0283 13.2614 17.0163 12.9336 17.0163V17.2507C12.9336 18.3785 12.9336 19.5064 12.9336 20.6337C12.9336 20.7898 12.906 20.9163 12.7721 20.999L10.973 21.0001Z" fill="white"/>
<path d="M6.98337 21C6.2758 20.0913 5.56563 19.1853 4.86536 18.27C4.80388 18.1895 4.76116 18.0262 4.79763 17.9485C4.83411 17.8707 4.98156 17.8126 5.08368 17.8066C5.3963 17.7885 5.70892 17.8 6.04342 17.8V17.5672C6.04342 16.4396 6.04342 15.3119 6.04342 14.1843C6.04342 13.877 6.1023 13.8167 6.40085 13.8162H7.78836C8.07805 13.8162 8.14579 13.8868 8.14631 14.1886C8.14631 15.3028 8.14631 16.4166 8.14631 17.53V17.7989C8.46518 17.7989 8.77155 17.7989 9.07323 17.7989C9.20714 17.7989 9.36605 17.7907 9.39575 17.9523C9.40751 18.0759 9.37313 18.1994 9.29988 18.2968C8.66526 19.1289 8.02023 19.9527 7.37675 20.7771C7.31579 20.8554 7.24492 20.9255 7.17823 20.9995L6.98337 21Z" fill="white"/>
<path d="M16.5626 21C15.8498 20.0869 15.1345 19.176 14.4295 18.2569C14.3711 18.1813 14.3352 18.0262 14.3706 17.949C14.4061 17.8718 14.5426 17.8115 14.6374 17.8066C14.9547 17.7891 15.2736 17.8 15.6201 17.8V17.5689C15.6201 16.4416 15.6201 15.3143 15.6201 14.187C15.6201 13.8759 15.6769 13.8167 15.9738 13.8162H17.3614C17.6604 13.8162 17.7229 13.883 17.7229 14.2051C17.7229 15.3119 17.7229 16.4187 17.7229 17.5256V17.7995C18.0314 17.7995 18.3289 17.7995 18.6259 17.7995C18.7634 17.7995 18.9104 17.7825 18.9781 17.949C19.0458 18.1155 18.9453 18.2191 18.8572 18.3324C18.2219 19.1471 17.5877 19.9618 16.9544 20.7765C16.8929 20.8549 16.8236 20.9261 16.7575 21.0006L16.5626 21Z" fill="white"/>
<path d="M1.74756 3.81737H1.99609C4.77806 3.81737 7.55986 3.81883 10.3415 3.82175C10.5614 3.82175 10.6859 3.7489 10.7776 3.53692C11.1225 2.74212 11.4825 1.95444 11.8368 1.16402C11.8634 1.10486 11.8936 1.0468 11.9478 0.935059V12.1986H1.74756V3.81737Z" fill="white"/>
<path d="M12.4606 12.1965V0.930176C12.5153 1.03973 12.5465 1.09998 12.5742 1.16133C12.9316 1.95777 13.2927 2.74983 13.6423 3.5523C13.7277 3.7473 13.8434 3.82344 14.0492 3.8218C15.0324 3.81249 16.0166 3.81742 17.0003 3.81742H17.2343C17.239 3.90013 17.2457 3.97188 17.2457 4.04309C17.2457 6.68841 17.2457 9.33335 17.2457 11.9779C17.2457 12.1231 17.2457 12.2162 17.0566 12.2151C15.5779 12.2069 14.0987 12.2107 12.62 12.2102C12.5716 12.2102 12.521 12.202 12.4606 12.1965Z" fill="white"/>
<path d="M0.0181885 3.30731C0.0447612 3.23446 0.0614358 3.17749 0.0848823 3.12436C0.527761 2.13839 0.970638 1.15243 1.41247 0.16153C1.46458 0.0519778 1.51668 0.000488281 1.64225 0.000488281C4.98242 0.00487036 8.32276 0.00614886 11.6633 0.004323C11.707 0.004323 11.7508 0.00979912 11.8097 0.0130857C11.7873 0.0755303 11.7727 0.126472 11.7513 0.174127C11.3059 1.16776 10.8578 2.1603 10.4165 3.15613C10.3644 3.27773 10.2997 3.32046 10.1679 3.32046C6.84685 3.31571 3.52596 3.31425 0.205244 3.31607C0.149493 3.31717 0.0932173 3.31115 0.0181885 3.30731Z" fill="white"/>
<path d="M12.6001 0.00927734H17.4931C17.9829 1.10151 18.4716 2.19155 18.9718 3.30569C18.8895 3.31117 18.84 3.3172 18.791 3.3172C17.2727 3.3172 15.7546 3.3172 14.2367 3.3172C14.1325 3.3172 14.0621 3.29967 14.01 3.183C13.5551 2.15595 13.0925 1.13219 12.6324 0.107328C12.6201 0.0752248 12.6093 0.0424997 12.6001 0.00927734Z" fill="white"/>
</g>
<defs>
<clipPath id="clip0_86_71">
<rect width="19" height="21" fill="white"/>
</clipPath>
</defs>
</svg>
