<?xml version="1.0" standalone="no"?>
<!DOCTYPE svg PUBLIC "-//W3C//DTD SVG 20010904//EN"
 "http://www.w3.org/TR/2001/REC-SVG-20010904/DTD/svg10.dtd">
<svg version="1.0" xmlns="http://www.w3.org/2000/svg"
 width="512.000000pt" height="512.000000pt" viewBox="0 0 512.000000 512.000000"
 preserveAspectRatio="xMidYMid meet">
<metadata>
Created by potrace 1.16, written by Peter Selinger 2001-2019
</metadata>
<g transform="translate(0.000000,512.000000) scale(0.100000,-0.100000)"
fill="#000000" stroke="none">
<path d="M392 4780 c-18 -11 -41 -34 -52 -52 -20 -33 -20 -55 -20 -2168 0
-2113 0 -2135 20 -2168 11 -18 34 -41 52 -52 33 -20 54 -20 1528 -20 1474 0
1495 0 1528 20 62 38 72 69 72 217 l0 133 -169 85 c-93 46 -186 98 -205 116
-20 17 -50 61 -68 97 l-33 67 0 465 0 465 33 67 c18 36 48 80 68 97 19 18 112
70 205 116 l169 85 0 210 0 210 -169 85 c-93 46 -186 98 -205 116 -20 17 -50
61 -68 97 l-33 67 0 465 0 465 33 67 c18 36 48 80 68 97 19 18 112 70 205 116
l169 85 0 133 c0 148 -10 179 -72 217 -33 20 -54 20 -1528 20 -1474 0 -1495 0
-1528 -20z m858 -810 c12 -12 20 -33 20 -52 0 -29 -21 -53 -178 -210 -223
-223 -205 -219 -344 -80 -83 83 -98 103 -98 130 0 41 31 72 71 72 24 0 45 -13
95 -62 l64 -62 144 142 c123 123 147 142 174 142 19 0 40 -8 52 -20z m1575
-304 c61 -26 61 -106 0 -132 -51 -21 -1279 -21 -1330 0 -60 25 -61 106 -2 131
48 21 1282 22 1332 1z m-1575 -496 c12 -12 20 -33 20 -52 0 -29 -21 -53 -178
-210 -223 -223 -205 -219 -344 -80 -83 83 -98 103 -98 130 0 41 31 72 71 72
24 0 45 -13 95 -62 l64 -62 144 142 c123 123 147 142 174 142 19 0 40 -8 52
-20z m1575 -304 c61 -26 61 -106 0 -132 -51 -21 -1279 -21 -1330 0 -60 25 -61
106 -2 131 48 21 1282 22 1332 1z m-1575 -496 c12 -12 20 -33 20 -52 0 -29
-21 -53 -178 -210 -223 -223 -205 -219 -344 -80 -83 83 -98 103 -98 130 0 41
31 72 71 72 24 0 45 -13 95 -62 l64 -62 144 142 c123 123 147 142 174 142 19
0 40 -8 52 -20z m1575 -304 c61 -26 61 -106 0 -132 -51 -21 -1279 -21 -1330 0
-60 25 -61 106 -2 131 48 21 1282 22 1332 1z m-1575 -496 c12 -12 20 -33 20
-52 0 -29 -21 -53 -178 -210 -223 -223 -205 -219 -344 -80 -83 83 -98 103 -98
130 0 41 31 72 71 72 24 0 45 -13 95 -62 l64 -62 144 142 c123 123 147 142
174 142 19 0 40 -8 52 -20z m1575 -304 c61 -26 61 -106 0 -132 -51 -21 -1279
-21 -1330 0 -60 25 -61 106 -2 131 48 21 1282 22 1332 1z"/>
<path d="M3608 4309 c-186 -93 -338 -171 -338 -174 0 -3 165 -88 367 -189
l367 -184 363 182 c200 99 363 184 363 188 0 5 -153 84 -340 178 -314 157
-344 170 -392 169 -48 0 -85 -16 -390 -170z"/>
<path d="M3200 3575 c0 -450 1 -456 46 -496 17 -15 621 -341 658 -355 15 -6
16 35 16 455 l0 461 -360 180 -360 180 0 -425z"/>
<path d="M4438 3815 l-358 -180 0 -459 c0 -432 1 -458 18 -451 45 17 640 339
659 357 42 39 43 54 41 493 l-3 420 -357 -180z"/>
<path d="M3608 2229 c-186 -93 -338 -171 -338 -174 0 -3 165 -88 367 -189
l367 -184 363 182 c200 99 363 184 363 188 0 5 -153 84 -340 178 -314 157
-344 170 -392 169 -48 0 -85 -16 -390 -170z"/>
<path d="M3200 1495 c0 -450 1 -456 46 -496 17 -15 621 -341 658 -355 15 -6
16 35 16 455 l0 461 -360 180 -360 180 0 -425z"/>
<path d="M4438 1735 l-358 -180 0 -459 c0 -432 1 -458 18 -451 45 17 640 339
659 357 42 39 43 54 41 493 l-3 420 -357 -180z"/>
</g>
</svg>
