<svg width="25" height="24" viewBox="0 0 25 24" fill="none" xmlns="http://www.w3.org/2000/svg">
<g clip-path="url(#clip0_72_414)">
<path d="M0 19.5641C0.0679258 19.275 0.122824 18.9827 0.206582 18.6984C0.351371 18.2059 0.513017 17.7186 0.669298 17.2294C0.838346 16.6963 1.19431 16.3024 1.64273 15.9733C2.43664 15.3904 3.30793 14.937 4.19633 14.5112C5.32425 13.9705 6.49916 13.5402 7.67382 13.11C7.71774 13.0938 7.79742 13.1204 7.83776 13.1533C8.1728 13.4272 8.48816 13.726 8.83699 13.9827C9.48815 14.4607 10.1929 14.8511 10.9922 15.0443C11.6692 15.2079 12.3607 15.2423 13.055 15.1984C14.3814 15.1153 15.4919 14.5404 16.4963 13.7364C16.7322 13.5474 16.9452 13.3311 17.173 13.1319C17.2026 13.107 17.2646 13.0871 17.3006 13.099C19.2393 13.7608 21.1055 14.5792 22.8639 15.6167C23.1096 15.7616 23.335 15.9419 23.5593 16.1187C23.8656 16.3591 24.1042 16.6716 24.2526 17.0267C24.559 17.755 24.7804 18.5086 24.9548 19.277C25.1049 19.939 24.8805 20.4811 24.4272 20.9583C23.9224 21.4897 23.3006 21.8597 22.6423 22.1766C21.5141 22.7196 20.3185 23.071 19.0966 23.3438C18.0616 23.5715 17.0131 23.7359 15.9572 23.8361C14.4117 23.9882 12.862 24.0422 11.3096 23.969C10.4616 23.9289 9.61226 23.8786 8.76906 23.7863C6.82066 23.5724 4.90444 23.2086 3.07453 22.4978C2.4821 22.2677 1.9106 21.9956 1.38328 21.6423C0.73569 21.2086 0.193048 20.6934 0.00203864 19.9124L0 19.5641Z" fill="#007516"/>
<path d="M18.5876 5.97474C18.5296 8.54745 17.6703 10.6827 15.8512 12.4213C15.3295 12.9232 14.7141 13.323 14.0381 13.599C13.4252 13.848 12.7815 13.846 12.1329 13.8311C11.1403 13.8079 10.3354 13.358 9.59076 12.7791C8.51135 11.9393 7.74629 10.865 7.19676 9.64048C6.69268 8.51683 6.41536 7.34438 6.42608 6.11118C6.43834 4.6783 6.9248 3.40725 7.81958 2.28733C8.84102 1.00857 10.2013 0.275069 11.8392 0.0465045C12.8198 -0.0901859 13.7692 0.0813612 14.6791 0.450351C16.6612 1.25456 17.8711 2.71159 18.4009 4.71514C18.5166 5.15659 18.5365 5.62118 18.5876 5.97474Z" fill="#007516"/>
</g>
<defs>
<clipPath id="clip0_72_414">
<rect width="25" height="24" fill="white"/>
</clipPath>
</defs>
</svg>
