<?xml version="1.0" standalone="no"?>
<!DOCTYPE svg PUBLIC "-//W3C//DTD SVG 20010904//EN"
 "http://www.w3.org/TR/2001/REC-SVG-20010904/DTD/svg10.dtd">
<svg version="1.0" xmlns="http://www.w3.org/2000/svg"
 width="124.000000pt" height="124.000000pt" viewBox="0 0 124.000000 124.000000"
 preserveAspectRatio="xMidYMid meet">
<metadata>
Created by potrace 1.16, written by Peter Selinger 2001-2019
</metadata>
<g transform="translate(0.000000,124.000000) scale(0.100000,-0.100000)"
fill="#000000" stroke="none">
<path d="M412 1228 c-8 -8 -12 -57 -12 -155 l0 -144 -57 3 -58 3 -11 53 c-19
84 -31 92 -138 92 -108 0 -136 -13 -136 -63 1 -51 21 -69 86 -76 l58 -6 13
-65 c8 -36 29 -135 48 -220 57 -258 65 -302 65 -365 0 -62 14 -96 52 -123 12
-9 18 -26 18 -54 0 -55 51 -108 104 -108 71 0 126 53 126 120 0 19 6 20 89 20
l88 0 7 -39 c9 -57 42 -91 93 -98 24 -3 55 0 71 6 33 14 62 58 62 96 0 17 10
37 25 51 14 13 25 32 25 44 0 13 7 20 20 20 55 0 147 76 176 146 38 91 1 227
-77 281 -21 16 -39 33 -39 38 0 6 14 43 30 84 57 138 42 161 -108 161 l-102 0
0 143 c0 98 -4 147 -12 155 -17 17 -489 17 -506 0z m148 -97 c0 -33 5 -63 10
-66 6 -4 27 3 46 14 19 12 41 21 49 21 8 0 30 -9 49 -21 19 -11 40 -18 46 -14
5 3 10 33 10 66 l0 59 55 0 55 0 0 -130 0 -130 -215 0 -215 0 0 130 0 130 55
0 55 0 0 -59z m503 -495 c35 -13 81 -45 74 -52 -2 -2 -25 8 -52 21 -26 14 -65
25 -85 25 -86 0 -173 -83 -168 -160 2 -27 7 -35 23 -35 15 0 21 9 26 37 9 57
66 108 119 108 36 0 80 -28 73 -47 -8 -20 22 -43 58 -43 21 0 28 6 34 28 7 25
8 25 15 7 14 -34 11 -115 -5 -150 -38 -78 -133 -125 -215 -105 -48 12 -119 59
-89 60 9 0 22 -6 28 -14 17 -21 95 -39 132 -31 78 16 139 86 139 160 0 28 -4
35 -19 35 -20 0 -31 -18 -31 -50 0 -28 -47 -77 -85 -90 -53 -18 -105 2 -105
40 0 24 -5 29 -35 34 -39 8 -55 2 -55 -20 0 -22 -17 -16 -24 9 -25 95 29 200
121 232 48 18 78 18 126 1z"/>
</g>
</svg>
