<?xml version="1.0" standalone="no"?>
<!DOCTYPE svg PUBLIC "-//W3C//DTD SVG 20010904//EN"
 "http://www.w3.org/TR/2001/REC-SVG-20010904/DTD/svg10.dtd">
<svg version="1.0" xmlns="http://www.w3.org/2000/svg"
 width="124.000000pt" height="124.000000pt" viewBox="0 0 124.000000 124.000000"
 preserveAspectRatio="xMidYMid meet">
<metadata>
Created by potrace 1.16, written by Peter Selinger 2001-2019
</metadata>
<g transform="translate(0.000000,124.000000) scale(0.100000,-0.100000)"
fill="#000000" stroke="none">
<path d="M994 1206 c-3 -7 -4 -18 -2 -24 2 -6 -85 -62 -192 -125 -180 -106
-231 -147 -183 -147 10 0 106 51 213 114 153 89 197 111 203 100 13 -22 22
-17 51 26 40 60 36 70 -29 70 -38 0 -57 -4 -61 -14z"/>
<path d="M910 700 l0 -340 95 0 95 0 0 340 0 340 -95 0 -95 0 0 -340z"/>
<path d="M221 998 c-58 -30 -84 -76 -78 -141 12 -140 188 -191 271 -79 30 40
33 123 7 165 -45 72 -125 94 -200 55z"/>
<path d="M657 833 c-4 -3 -7 -74 -7 -158 l0 -151 89 -52 c49 -29 92 -52 95
-52 3 0 6 95 6 210 l0 210 -88 0 c-49 0 -92 -3 -95 -7z"/>
<path d="M400 545 c0 -69 2 -125 5 -125 3 0 46 24 95 52 l90 53 0 72 0 73 -95
0 -95 0 0 -125z"/>
<path d="M140 445 l0 -85 95 0 95 0 0 85 0 85 -95 0 -95 0 0 -85z"/>
<path d="M578 422 c-54 -32 -98 -60 -98 -65 0 -4 16 -15 35 -24 34 -16 37 -16
78 5 84 43 161 90 165 100 4 12 -49 43 -70 41 -7 0 -57 -26 -110 -57z"/>
<path d="M400 256 l0 -124 96 -56 c53 -31 100 -56 105 -56 14 0 11 234 -3 248
-24 24 -37 13 -40 -38 l-3 -49 -52 30 -53 31 0 57 c0 52 -3 59 -25 69 l-25 12
0 -124z"/>
<path d="M735 322 l-100 -58 -3 -122 c-1 -67 1 -122 6 -122 10 0 181 96 195
109 4 4 6 62 5 129 l-3 122 -100 -58z"/>
<path d="M80 300 l0 -40 150 0 150 0 0 40 0 40 -150 0 -150 0 0 -40z"/>
<path d="M860 300 l0 -40 151 0 150 0 -3 38 -3 37 -147 3 -148 3 0 -41z"/>
</g>
</svg>
